<?xml version="1.0" standalone="no"?>
<!DOCTYPE svg PUBLIC "-//W3C//DTD SVG 20010904//EN"
 "http://www.w3.org/TR/2001/REC-SVG-20010904/DTD/svg10.dtd">
<svg version="1.0" xmlns="http://www.w3.org/2000/svg"
 width="512.000000pt" height="512.000000pt" viewBox="0 0 512.000000 512.000000"
 preserveAspectRatio="xMidYMid meet">
<metadata>
Created by potrace 1.14, written by Peter Selinger 2001-2017
</metadata>
<g transform="translate(0.000000,512.000000) scale(0.100000,-0.100000)"
fill="#000000" stroke="none">
<path d="M1698 5102 c-25 -15 -28 -23 -28 -67 l0 -50 -84 3 c-242 9 -486 -150
-611 -399 -49 -96 -68 -179 -68 -287 l0 -92 -57 -31 c-89 -47 -230 -159 -284
-225 -97 -119 -140 -255 -118 -376 16 -85 70 -190 135 -263 l54 -59 -25 -61
c-33 -77 -37 -212 -9 -291 l18 -51 -84 -84 c-129 -130 -174 -237 -165 -390 6
-109 54 -204 155 -309 l74 -78 -20 -33 c-70 -121 -66 -304 9 -432 l20 -34 -45
-67 c-43 -64 -85 -174 -85 -220 0 -19 -15 -29 -87 -60 -164 -71 -287 -154
-355 -239 l-38 -49 0 -140 0 -141 40 -54 c144 -190 602 -366 1202 -462 376
-61 381 -61 1319 -61 l868 0 203 26 c752 95 1266 273 1450 502 l38 47 0 139 0
139 -39 52 c-22 29 -68 74 -103 100 -58 44 -234 138 -304 162 -27 9 -31 17
-41 72 -7 34 -26 90 -44 126 l-31 64 40 61 c138 206 115 408 -66 602 l-75 78
26 58 c51 114 58 213 21 324 l-15 47 69 68 c116 114 170 216 179 339 10 130
-36 249 -138 359 -57 60 -57 60 -41 90 67 129 52 309 -39 444 -44 66 -156 174
-225 218 l-44 28 0 92 c0 278 -209 546 -495 635 -94 30 -226 29 -308 0 l-59
-21 -26 59 c-22 53 -29 60 -60 66 -33 6 -38 3 -131 -90 l-98 -97 -140 -21
c-133 -20 -142 -23 -157 -49 -15 -26 -15 -30 24 -115 l40 -87 -76 7 c-42 3
-124 6 -181 6 -62 0 -102 4 -98 9 3 5 -35 65 -84 134 l-90 124 6 136 c5 123 4
139 -12 157 -10 11 -25 20 -34 20 -9 0 -77 -20 -152 -44 l-137 -43 -113 43
c-149 58 -140 56 -171 36z m176 -124 l110 -41 115 38 c64 21 122 40 130 43 12
4 13 -15 7 -119 l-7 -125 79 -109 c51 -70 76 -112 68 -117 -6 -3 -56 -18 -111
-33 -55 -15 -106 -32 -112 -37 -7 -6 -44 -55 -83 -109 -39 -54 -74 -99 -78
-99 -4 0 -35 45 -70 99 l-63 100 -130 43 -130 43 75 97 76 96 0 136 c0 75 3
136 7 136 4 0 57 -19 117 -42z m1473 -220 l60 -123 99 -54 c54 -30 101 -56
103 -58 3 -2 -38 -47 -91 -101 -104 -106 -100 -96 -124 -275 -4 -26 -10 -49
-14 -52 -3 -2 -56 23 -116 57 l-109 61 -115 -16 c-63 -8 -117 -13 -119 -11 -2
2 5 61 17 131 l21 128 -45 100 c-25 55 -46 107 -47 115 -2 11 23 18 110 31 61
10 120 20 130 23 10 3 54 42 98 86 44 44 80 80 81 80 1 0 29 -55 61 -122z
m-262 -969 c5 -5 -54 -218 -161 -580 -4 -15 -32 -16 -289 -11 l-285 5 0 -199
c0 -549 -46 -1436 -70 -1369 -9 25 -27 228 -41 455 -7 128 -22 955 -19 1098 0
9 -38 12 -155 12 -85 0 -155 3 -155 6 0 4 140 491 166 577 5 17 33 18 504 15
274 -2 501 -6 505 -9z m1414 -551 c65 -88 75 -115 76 -198 0 -59 -5 -85 -24
-123 -113 -231 -554 -443 -1126 -542 -249 -43 -674 -72 -892 -60 l-133 7 0 92
c0 50 3 148 7 217 l6 126 236 6 c582 16 1083 118 1446 297 137 67 223 122 292
185 26 24 53 44 60 45 7 0 30 -24 52 -52z m-3617 -146 c260 -144 688 -260
1132 -307 76 -8 140 -16 141 -17 1 -2 5 -99 7 -216 l5 -214 -61 7 c-337 37
-705 135 -941 250 -285 139 -420 283 -419 445 0 36 6 78 12 93 l12 28 28 -19
c15 -10 52 -33 84 -50z m3534 -1108 c145 -152 145 -310 -2 -464 -216 -227
-667 -389 -1294 -467 -183 -22 -787 -25 -975 -5 -517 56 -940 180 -1205 353
-86 56 -190 163 -220 225 -34 70 -39 166 -11 229 11 26 24 45 28 43 5 -2 64
-31 133 -65 210 -104 473 -184 780 -237 151 -27 407 -56 483 -56 68 0 106 -10
112 -31 10 -31 46 -35 69 -7 l21 25 240 6 c352 9 617 42 910 112 344 82 605
194 790 339 39 30 74 55 78 55 5 1 33 -24 63 -55z m-3824 -1112 c104 -134 317
-271 571 -366 887 -331 2262 -288 3008 95 204 106 366 249 423 376 21 48 17
49 151 -18 217 -109 292 -222 216 -327 -147 -202 -758 -390 -1516 -466 -319
-32 -492 -40 -885 -40 -597 0 -1030 38 -1485 129 -655 132 -1026 339 -932 522
34 65 157 154 297 213 l65 28 23 -46 c13 -26 42 -71 64 -100z"/>
</g>
</svg>
